<?xml version="1.0" standalone="no"?>
<!DOCTYPE svg PUBLIC "-//W3C//DTD SVG 20010904//EN"
 "http://www.w3.org/TR/2001/REC-SVG-20010904/DTD/svg10.dtd">
<svg version="1.0" xmlns="http://www.w3.org/2000/svg"
 width="926.000000pt" height="1280.000000pt" viewBox="0 0 926.000000 1280.000000"
 preserveAspectRatio="xMidYMid meet">
<g transform="translate(0.000000,1280.000000) scale(0.100000,-0.100000)"
fill="#000000" stroke="none">
<path d="M7662 12774 c-522 -93 -941 -414 -1172 -898 -127 -266 -178 -505
-166 -786 28 -694 475 -1238 1123 -1367 124 -24 366 -24 498 1 636 118 1150
645 1274 1306 55 296 55 305 0 612 -73 404 -324 768 -669 968 -145 84 -298
136 -501 170 -150 25 -219 24 -387 -6z"/>
<path d="M4930 12094 c-80 -9 -189 -38 -245 -65 -224 -106 -380 -383 -415
-738 -36 -353 93 -636 363 -799 200 -121 493 -134 705 -31 368 179 535 887
301 1275 -73 121 -202 235 -325 290 -111 49 -281 79 -384 68z"/>
<path d="M3065 11784 c-201 -31 -360 -155 -461 -359 -24 -49 -51 -117 -59
-150 -63 -247 12 -615 175 -855 100 -147 216 -236 377 -290 174 -57 329 -52
472 15 126 60 262 215 321 366 89 224 57 556 -80 826 -116 230 -247 347 -466
416 -80 25 -216 40 -279 31z"/>
<path d="M1530 10795 c-36 -8 -107 -35 -159 -61 -175 -87 -301 -240 -347 -424
-25 -100 -15 -240 25 -351 94 -257 322 -491 563 -577 61 -21 90 -26 183 -26
129 0 215 19 320 71 227 113 365 324 365 559 0 109 -22 192 -80 309 -110 223
-317 416 -520 486 -83 29 -253 35 -350 14z"/>
<path d="M4600 10024 c-190 -16 -443 -54 -625 -94 -617 -137 -1123 -375 -1680
-793 -179 -134 -285 -226 -441 -381 -637 -636 -871 -1351 -851 -2601 3 -181
11 -375 17 -430 105 -959 497 -2197 1031 -3255 651 -1291 1413 -2126 2164
-2370 184 -59 343 -83 639 -97 125 -6 181 -2 486 33 445 51 836 221 1058 458
240 257 323 591 232 937 -69 265 -268 578 -678 1067 -92 109 -246 293 -342
408 -220 262 -267 322 -368 461 -273 380 -366 643 -366 1033 0 143 4 194 22
277 88 407 342 749 766 1032 258 172 506 286 881 406 197 62 339 126 455 204
561 377 726 1148 429 2009 -89 257 -281 601 -465 832 -81 102 -261 283 -365
367 -157 128 -385 260 -559 326 -156 58 -357 107 -600 144 -145 22 -203 25
-480 28 -173 1 -335 1 -360 -1z"/>
<path d="M377 9425 c-130 -36 -249 -130 -305 -241 -33 -65 -72 -206 -72 -259
0 -56 50 -236 86 -310 147 -301 493 -493 786 -436 194 38 349 190 389 380 18
89 7 252 -24 343 -86 250 -304 454 -554 518 -89 23 -232 25 -306 5z"/>
</g>
</svg>
